# xmcd CD database file
#
# Track frame offsets:
#	150
#	12666
#	27531
#	38871
#	54886
#	67365
#	78521
#	88020
#	99581
#	111293
#	123829
#	138556
#	155139
#	166000
#	177007
#	187525
#
# Disc length: 2643 seconds
#
# Revision: 3
# Processed by: cddbd v1.5.2PL0 Copyright (c) Steve Scherf et al.
# Submitted via: CDex 1.70beta2
#
DISCID=d20a5110
DTITLE=Ernst Mosch - Rosen aus Böhmen  CD 3
DYEAR=2004
DGENRE=Blasmusik
TTITLE0=Castaldo Marsch
TTITLE1=Böhmische Paradepolka
TTITLE2=Heimat Liebe (Walzer)
TTITLE3=Gablonzer Perlen (Polka)
TTITLE4=Freue dich an jedem Morgen (Polka)
TTITLE5=Ein kleines Rendezvous (Walzer)
TTITLE6=Ein Egeländer Musikant (Polka)
TTITLE7=Fliegermarsch
TTITLE8=Hu-a-hu (Polka)
TTITLE9=Egerländer Dorfschwalben (Walzer)
TTITLE10=Freut euch auf jeden Tag (Polka Potpourri)
TTITLE11=Gentleman (Walzer)
TTITLE12=Geburtstagsmarsch
TTITLE13=I lieg im Straßengrab'n (Walzer)
TTITLE14=Immer wieder Polka
TTITLE15=Im Tempo unserer Zeit (Marsch)
EXTD=YEAR: 2004
EXTT0=
EXTT1=
EXTT2=
EXTT3=
EXTT4=
EXTT5=
EXTT6=
EXTT7=
EXTT8=
EXTT9=
EXTT10=
EXTT11=
EXTT12=
EXTT13=
EXTT14=
EXTT15=
PLAYORDER=
